Fraunces-LightOpMax.ufo
<glyph name="less" format="2">
  <advance width="496"/>
  <unicode hex="003C"/>
  <outline>
    <contour>
      <point x="440" y="138" type="curve" smooth="yes"/>
      <point x="444" y="142"/>
      <point x="440" y="153"/>
      <point x="444" y="152" type="curve" smooth="yes"/>
      <point x="369" y="191"/>
      <point x="269" y="234"/>
      <point x="75" y="314" type="curve"/>
      <point x="74" y="305" type="line"/>
      <point x="268" y="385"/>
      <point x="368" y="427"/>
      <point x="444" y="464" type="curve" smooth="yes"/>
      <point x="449" y="466"/>
      <point x="450" y="481"/>
      <point x="441" y="489" type="curve" smooth="yes"/>
      <point x="436" y="489"/>
      <point x="432" y="492"/>
      <point x="420" y="493" type="curve" smooth="yes"/>
      <point x="334" y="453"/>
      <point x="233" y="382"/>
      <point x="44" y="300" type="curve" smooth="yes"/>
      <point x="53" y="303"/>
      <point x="54" y="307"/>
      <point x="54" y="309" type="curve" smooth="yes"/>
      <point x="54" y="311"/>
      <point x="51" y="314"/>
      <point x="44" y="316" type="curve" smooth="yes"/>
      <point x="233" y="234"/>
      <point x="338" y="170"/>
      <point x="420" y="123" type="curve" smooth="yes"/>
      <point x="425" y="122"/>
      <point x="435" y="128"/>
    </contour>
  </outline>
</glyph>
<glyph name="I" format="2">
  <advance width="289"/>
  <unicode hex="0049"/>
  <outline>
    <contour>
      <point x="159" y="24" type="curve" smooth="yes"/>
      <point x="159" y="675" type="line" smooth="yes"/>
      <point x="159" y="681"/>
      <point x="162" y="684"/>
      <point x="172" y="686" type="curve" smooth="yes"/>
      <point x="233" y="696" type="line" smooth="yes"/>
      <point x="234" y="696"/>
      <point x="235" y="697"/>
      <point x="235" y="698" type="curve" smooth="yes"/>
      <point x="235" y="699"/>
      <point x="234" y="700"/>
      <point x="233" y="700" type="curve" smooth="yes"/>
      <point x="57" y="700" type="line" smooth="yes"/>
      <point x="56" y="700"/>
      <point x="54" y="699"/>
      <point x="54" y="698" type="curve" smooth="yes"/>
      <point x="54" y="697"/>
      <point x="56" y="696"/>
      <point x="57" y="696" type="curve" smooth="yes"/>
      <point x="117" y="686" type="line" smooth="yes"/>
      <point x="126" y="685"/>
      <point x="130" y="681"/>
      <point x="130" y="675" type="curve" smooth="yes"/>
      <point x="130" y="24" type="line" smooth="yes"/>
      <point x="130" y="16"/>
      <point x="126" y="13"/>
      <point x="116" y="12" type="curve" smooth="yes"/>
      <point x="58" y="5" type="line" smooth="yes"/>
      <point x="55" y="5"/>
      <point x="54" y="4"/>
      <point x="54" y="2" type="curve" smooth="yes"/>
      <point x="54" y="1"/>
      <point x="55" y="0"/>
      <point x="57" y="0" type="curve" smooth="yes"/>
      <point x="233" y="0" type="line" smooth="yes"/>
      <point x="234" y="0"/>
      <point x="235" y="1"/>
      <point x="235" y="2" type="curve" smooth="yes"/>
      <point x="235" y="3"/>
      <point x="233" y="4"/>
      <point x="233" y="4" type="curve" smooth="yes"/>
      <point x="172" y="12" type="line" smooth="yes"/>
      <point x="162" y="13"/>
      <point x="159" y="16"/>
    </contour>
  </outline>
</glyph>
<glyph name="M" format="2">
  <advance width="799"/>
  <unicode hex="004D"/>
  <outline>
    <contour>
      <point x="407" y="179" type="line"/>
      <point x="161" y="705" type="line" smooth="yes"/>
      <point x="161" y="702"/>
      <point x="165" y="700"/>
      <point x="160" y="700" type="curve" smooth="yes"/>
      <point x="77" y="700" type="line" smooth="yes"/>
      <point x="71" y="700"/>
      <point x="67" y="701"/>
      <point x="67" y="703" type="curve" smooth="yes"/>
      <point x="67" y="701"/>
      <point x="72" y="705"/>
      <point x="81" y="702" type="curve" smooth="yes"/>
      <point x="132" y="686" type="line" smooth="yes"/>
      <point x="143" y="683"/>
      <point x="146" y="673"/>
      <point x="146" y="659" type="curve" smooth="yes"/>
      <point x="111" y="59" type="line" smooth="yes"/>
      <point x="110" y="40"/>
      <point x="97" y="32"/>
      <point x="80" y="25" type="curve" smooth="yes"/>
      <point x="35" y="6" type="line" smooth="yes"/>
      <point x="21" y="-1"/>
      <point x="18" y="3"/>
      <point x="18" y="0" type="curve" smooth="yes"/>
      <point x="18" y="1"/>
      <point x="20" y="0"/>
      <point x="23" y="0" type="curve" smooth="yes"/>
      <point x="205" y="0" type="line" smooth="yes"/>
      <point x="211" y="0"/>
      <point x="214" y="1"/>
      <point x="214" y="1" type="curve" smooth="yes"/>
      <point x="214" y="4"/>
      <point x="207" y="2"/>
      <point x="201" y="5" type="curve" smooth="yes"/>
      <point x="147" y="27" type="line" smooth="yes"/>
      <point x="125" y="35"/>
      <point x="116" y="45"/>
      <point x="117" y="59" type="curve" smooth="yes"/>
      <point x="151" y="615" type="line"/>
      <point x="163" y="608" type="line"/>
      <point x="401" y="94" type="line" smooth="yes"/>
      <point x="394" y="110"/>
      <point x="395" y="102"/>
      <point x="390" y="102" type="curve" smooth="yes"/>
      <point x="391" y="102"/>
      <point x="389" y="100"/>
      <point x="389" y="95" type="curve" smooth="yes"/>
      <point x="626" y="627" type="line"/>
      <point x="631" y="626" type="line"/>
      <point x="675" y="37" type="line" smooth="yes"/>
      <point x="676" y="19"/>
      <point x="669" y="10"/>
      <point x="655" y="6" type="curve" smooth="yes"/>
      <point x="606" y="-5" type="line" smooth="yes"/>
      <point x="599" y="-7"/>
      <point x="595" y="-4"/>
      <point x="595" y="-3" type="curve" smooth="yes"/>
      <point x="595" y="0"/>
      <point x="598" y="0"/>
      <point x="606" y="0" type="curve" smooth="yes"/>
      <point x="791" y="0" type="line" smooth="yes"/>
      <point x="794" y="0"/>
      <point x="795" y="-1"/>
      <point x="795" y="-5" type="curve" smooth="yes"/>
      <point x="795" y="-6"/>
      <point x="791" y="-8"/>
      <point x="784" y="-6" type="curve" smooth="yes"/>
      <point x="741" y="7" type="line" smooth="yes"/>
      <point x="723" y="14"/>
      <point x="716" y="20"/>
      <point x="715" y="37" type="curve" smooth="yes"/>
      <point x="668" y="670" type="line" smooth="yes"/>
      <point x="667" y="685"/>
      <point x="673" y="697"/>
      <point x="685" y="697" type="curve" smooth="yes"/>
      <point x="739" y="702" type="line" smooth="yes"/>
      <point x="747" y="701"/>
      <point x="751" y="703"/>
      <point x="751" y="702" type="curve" smooth="yes"/>
      <point x="751" y="701"/>
      <point x="753" y="700"/>
      <point x="755" y="700" type="curve" smooth="yes"/>
      <point x="755" y="700"/>
      <point x="659" y="700"/>
      <point x="643" y="700" type="curve" smooth="yes"/>
      <point x="637" y="700"/>
      <point x="641" y="700"/>
      <point x="642" y="704" type="curve" smooth="yes"/>
      <point x="413" y="184" type="line"/>
    </contour>
  </outline>
</glyph>
<glyph name="R" format="2">
  <advance width="606"/>
  <unicode hex="0052"/>
  <anchor x="314" y="738" name="center"/>
  <outline>
    <contour>
      <point x="523" y="465" type="curve" smooth="yes"/>
      <point x="523" y="605"/>
      <point x="425" y="700"/>
      <point x="240" y="700" type="curve" smooth="yes"/>
      <point x="51" y="700" type="line" smooth="yes"/>
      <point x="49.0" y="700.0"/>
      <point x="48.0" y="699.0"/>
      <point x="48" y="698" type="curve" smooth="yes"/>
      <point x="48" y="697"/>
      <point x="49" y="696"/>
      <point x="50" y="696" type="curve" smooth="yes"/>
      <point x="115" y="686" type="line" smooth="yes"/>
      <point x="126" y="684"/>
      <point x="130" y="676"/>
      <point x="130" y="666" type="curve" smooth="yes"/>
      <point x="130" y="32" type="line" smooth="yes"/>
      <point x="130" y="22.82758620689655"/>
      <point x="123.37221425209141" y="14.560091662743998"/>
      <point x="110" y="13" type="curve" smooth="yes"/>
      <point x="50" y="6" type="line" smooth="yes"/>
      <point x="47.32555714958172" y="5.687981667451201"/>
      <point x="46.0" y="4.0"/>
      <point x="46" y="3" type="curve" smooth="yes"/>
      <point x="46.0" y="1.0"/>
      <point x="47.5" y="0"/>
      <point x="50" y="0" type="curve" smooth="yes"/>
      <point x="235" y="0" type="line" smooth="yes"/>
      <point x="238.0" y="0"/>
      <point x="240.0" y="1.5"/>
      <point x="240" y="3" type="curve" smooth="yes"/>
      <point x="240.0" y="4.5"/>
      <point x="238.40520582401817" y="5.227827739425975"/>
      <point x="233" y="6" type="curve" smooth="yes"/>
      <point x="177" y="14" type="line" smooth="yes"/>
      <point x="165.24958724129235" y="15.678630394101095"/>
      <point x="159" y="21.714285714285715"/>
      <point x="159" y="32" type="curve" smooth="yes"/>
      <point x="159" y="695" type="line"/>
      <point x="240" y="695" type="line" smooth="yes"/>
      <point x="394.0" y="695"/>
      <point x="493.0" y="601"/>
      <point x="493" y="472" type="curve" smooth="yes"/>
      <point x="493.0" y="350"/>
      <point x="421.0" y="277.0"/>
      <point x="300" y="277" type="curve" smooth="yes"/>
      <point x="235" y="277.0"/>
      <point x="193" y="289"/>
      <point x="146" y="317" type="curve"/>
      <point x="144" y="313" type="line"/>
      <point x="191" y="281"/>
      <point x="233" y="270"/>
      <point x="304" y="270" type="curve" smooth="yes"/>
      <point x="437.0" y="270.0"/>
      <point x="523.0" y="347"/>
    </contour>
    <contour>
      <point x="333" y="274" type="line"/>
      <point x="489" y="37" type="line" smooth="yes"/>
      <point x="494" y="29"/>
      <point x="497" y="25"/>
      <point x="497" y="19" type="curve" smooth="yes"/>
      <point x="497.0" y="10.0"/>
      <point x="489" y="6.0"/>
      <point x="470" y="6" type="curve" smooth="yes"/>
      <point x="467" y="6"/>
      <point x="465.0" y="5.0"/>
      <point x="465" y="3" type="curve" smooth="yes"/>
      <point x="465" y="1"/>
      <point x="466.0" y="0"/>
      <point x="469" y="0" type="curve" smooth="yes"/>
      <point x="577" y="0" type="line" smooth="yes"/>
      <point x="579" y="0"/>
      <point x="580.0" y="1"/>
      <point x="580" y="2" type="curve" smooth="yes"/>
      <point x="580.0" y="3"/>
      <point x="579.0" y="4"/>
      <point x="577" y="4" type="curve" smooth="yes"/>
      <point x="555" y="4.0"/>
      <point x="539" y="13"/>
      <point x="518" y="44" type="curve" smooth="yes"/>
      <point x="360" y="278" type="line"/>
    </contour>
  </outline>
</glyph>
<glyph name="a" format="2">
  <advance width="362"/>
  <unicode hex="0061"/>
  <anchor x="180" y="471" name="center"/>
  <outline>
    <contour>
      <point x="46" y="349" type="curve" smooth="yes"/>
      <point x="46" y="333"/>
      <point x="54" y="324"/>
      <point x="64" y="324" type="curve" smooth="yes"/>
      <point x="74" y="324"/>
      <point x="83" y="330"/>
      <point x="83" y="346" type="curve" smooth="yes"/>
      <point x="83" y="368" type="line" smooth="yes"/>
      <point x="83" y="410"/>
      <point x="114" y="432"/>
      <point x="171" y="432" type="curve" smooth="yes"/>
      <point x="245" y="432"/>
      <point x="278" y="385"/>
      <point x="278" y="295" type="curve" smooth="yes"/>
      <point x="278" y="54" type="line" smooth="yes"/>
      <point x="278" y="9"/>
      <point x="297" y="-8"/>
      <point x="326" y="-8" type="curve" smooth="yes"/>
      <point x="343" y="-8"/>
      <point x="355" y="2"/>
      <point x="355" y="16" type="curve" smooth="yes"/>
      <point x="355" y="17"/>
      <point x="354" y="18"/>
      <point x="353" y="18" type="curve" smooth="yes"/>
      <point x="351" y="18"/>
      <point x="352" y="-1"/>
      <point x="331" y="0" type="curve" smooth="yes"/>
      <point x="318" y="1"/>
      <point x="305" y="12"/>
      <point x="305" y="41" type="curve" smooth="yes"/>
      <point x="305" y="313" type="line" smooth="yes"/>
      <point x="305" y="388"/>
      <point x="263" y="436"/>
      <point x="173" y="436" type="curve" smooth="yes"/>
      <point x="90" y="436"/>
      <point x="46" y="397"/>
    </contour>
    <contour>
      <point x="298" y="172" type="curve"/>
      <point x="300" y="175" type="line"/>
      <point x="266" y="188"/>
      <point x="229" y="201"/>
      <point x="171" y="201" type="curve" smooth="yes"/>
      <point x="82" y="201"/>
      <point x="30" y="153"/>
      <point x="30" y="93" type="curve" smooth="yes"/>
      <point x="30" y="33"/>
      <point x="74" y="-8"/>
      <point x="145" y="-8" type="curve" smooth="yes"/>
      <point x="201" y="-8"/>
      <point x="249" y="20"/>
      <point x="284" y="62" type="curve"/>
      <point x="281" y="64" type="line"/>
      <point x="247" y="24"/>
      <point x="206" y="2"/>
      <point x="161" y="2" type="curve" smooth="yes"/>
      <point x="101" y="2"/>
      <point x="61" y="42"/>
      <point x="61" y="99" type="curve" smooth="yes"/>
      <point x="61" y="155"/>
      <point x="102" y="197"/>
      <point x="183" y="197" type="curve" smooth="yes"/>
      <point x="228" y="197"/>
      <point x="265" y="185"/>
    </contour>
  </outline>
</glyph>
<glyph name="b" format="2">
  <advance width="451"/>
  <unicode hex="0062"/>
  <outline>
    <contour>
      <point x="99" y="349" type="line"/>
      <point x="149" y="403"/>
      <point x="203" y="422"/>
      <point x="244" y="422" type="curve" smooth="yes"/>
      <point x="336" y="422"/>
      <point x="404" y="341"/>
      <point x="404" y="216" type="curve" smooth="yes"/>
      <point x="404" y="79"/>
      <point x="326" y="-5"/>
      <point x="237" y="-5" type="curve" smooth="yes"/>
      <point x="166" y="-5"/>
      <point x="111" y="33"/>
      <point x="81" y="85" type="curve"/>
      <point x="77" y="83" type="line"/>
      <point x="110" y="31"/>
      <point x="164" y="-10"/>
      <point x="236" y="-10" type="curve" smooth="yes"/>
      <point x="351" y="-10"/>
      <point x="431" y="82"/>
      <point x="431" y="221" type="curve" smooth="yes"/>
      <point x="431" y="349"/>
      <point x="351" y="435"/>
      <point x="255" y="435" type="curve" smooth="yes"/>
      <point x="203" y="435"/>
      <point x="160" y="418"/>
      <point x="97" y="351" type="curve"/>
    </contour>
    <contour>
      <point x="103" y="711" type="line" smooth="yes"/>
      <point x="103" y="713"/>
      <point x="102" y="715"/>
      <point x="100" y="715" type="curve" smooth="yes"/>
      <point x="99" y="715"/>
      <point x="98" y="715"/>
      <point x="95" y="714" type="curve" smooth="yes"/>
      <point x="21" y="693" type="line" smooth="yes"/>
      <point x="19" y="692"/>
      <point x="18" y="692"/>
      <point x="18" y="690" type="curve" smooth="yes"/>
      <point x="18" y="689"/>
      <point x="19" y="688"/>
      <point x="20" y="688" type="curve" smooth="yes"/>
      <point x="72" y="688" type="line" smooth="yes"/>
      <point x="75" y="688"/>
      <point x="76" y="686"/>
      <point x="76" y="684" type="curve" smooth="yes"/>
      <point x="76" y="1" type="line" smooth="yes"/>
      <point x="76" y="-1"/>
      <point x="77" y="-2"/>
      <point x="78" y="-2" type="curve" smooth="yes"/>
      <point x="80" y="-2"/>
      <point x="80" y="-1"/>
      <point x="81" y="1" type="curve" smooth="yes"/>
      <point x="103" y="52" type="line"/>
    </contour>
  </outline>
</glyph>
<glyph name="f" format="2">
  <advance width="202"/>
  <unicode hex="0066"/>
  <outline>
    <contour>
      <point x="107" y="21" type="curve" smooth="yes"/>
      <point x="107" y="424" type="line"/>
      <point x="196" y="424" type="line" smooth="yes"/>
      <point x="201" y="424"/>
      <point x="204" y="424"/>
      <point x="204" y="427" type="curve" smooth="yes"/>
      <point x="204" y="430"/>
      <point x="201" y="430"/>
      <point x="196" y="430" type="curve" smooth="yes"/>
      <point x="107" y="430" type="line"/>
      <point x="107" y="441" type="line" smooth="yes"/>
      <point x="107" y="455"/>
      <point x="103" y="475"/>
      <point x="82" y="518" type="curve" smooth="yes"/>
      <point x="64" y="555"/>
      <point x="47" y="584"/>
      <point x="47" y="617" type="curve" smooth="yes"/>
      <point x="47" y="669"/>
      <point x="85" y="703"/>
      <point x="137" y="703" type="curve" smooth="yes"/>
      <point x="169" y="703"/>
      <point x="185" y="689"/>
      <point x="185" y="666" type="curve" smooth="yes"/>
      <point x="185" y="649" type="line" smooth="yes"/>
      <point x="185" y="633"/>
      <point x="194" y="627"/>
      <point x="204" y="627" type="curve" smooth="yes"/>
      <point x="214" y="627"/>
      <point x="222" y="636"/>
      <point x="222" y="652" type="curve" smooth="yes"/>
      <point x="222" y="685"/>
      <point x="192" y="715"/>
      <point x="141" y="715" type="curve" smooth="yes"/>
      <point x="89" y="715"/>
      <point x="40" y="678"/>
      <point x="40" y="609" type="curve" smooth="yes"/>
      <point x="40" y="543"/>
      <point x="82" y="493"/>
      <point x="82" y="441" type="curve" smooth="yes"/>
      <point x="82" y="422" type="line"/>
      <point x="85" y="430" type="line"/>
      <point x="3" y="430" type="line"/>
      <point x="2" y="430"/>
      <point x="1" y="429"/>
      <point x="1" y="428" type="curve" smooth="yes"/>
      <point x="1" y="426"/>
      <point x="2" y="426"/>
      <point x="4" y="425" type="curve" smooth="yes"/>
      <point x="72" y="406" type="line" smooth="yes"/>
      <point x="78" y="404"/>
      <point x="80" y="401"/>
      <point x="80" y="396" type="curve" smooth="yes"/>
      <point x="80" y="20" type="line" smooth="yes"/>
      <point x="80" y="15"/>
      <point x="76" y="11"/>
      <point x="68" y="10" type="curve" smooth="yes"/>
      <point x="29" y="6" type="line" smooth="yes"/>
      <point x="23" y="5"/>
      <point x="22" y="3"/>
      <point x="22" y="2" type="curve" smooth="yes"/>
      <point x="22" y="1"/>
      <point x="23" y="0"/>
      <point x="24" y="0" type="curve" smooth="yes"/>
      <point x="185" y="0" type="line"/>
      <point x="187" y="0"/>
      <point x="188" y="1"/>
      <point x="188" y="2" type="curve"/>
      <point x="188" y="4"/>
      <point x="187" y="5"/>
      <point x="184" y="5" type="curve" smooth="yes"/>
      <point x="119" y="10" type="line" smooth="yes"/>
      <point x="111" y="11"/>
      <point x="107" y="15"/>
    </contour>
  </outline>
</glyph>
<glyph name="g" format="2">
  <advance width="429"/>
  <unicode hex="0067"/>
  <outline>
    <contour>
      <point x="219" y="436" type="curve" smooth="yes"/>
      <point x="111" y="436"/>
      <point x="45" y="361"/>
      <point x="45" y="260" type="curve" smooth="yes"/>
      <point x="45" y="170"/>
      <point x="113" y="102"/>
      <point x="201" y="102" type="curve" smooth="yes"/>
      <point x="300" y="102"/>
      <point x="378" y="172"/>
      <point x="378" y="276" type="curve" smooth="yes"/>
      <point x="378" y="368"/>
      <point x="309" y="436"/>
    </contour>
    <contour>
      <point x="353" y="256" type="curve" smooth="yes"/>
      <point x="353" y="171"/>
      <point x="298" y="109"/>
      <point x="217" y="109" type="curve" smooth="yes"/>
      <point x="131" y="109"/>
      <point x="70" y="186"/>
      <point x="70" y="280" type="curve" smooth="yes"/>
      <point x="70" y="364"/>
      <point x="128" y="429"/>
      <point x="205" y="429" type="curve" smooth="yes"/>
      <point x="297" y="429"/>
      <point x="353" y="355"/>
    </contour>
    <contour>
      <point x="305" y="406" type="line" smooth="yes"/>
      <point x="309" y="403" type="line"/>
      <point x="329" y="423"/>
      <point x="345" y="441"/>
      <point x="362" y="441" type="curve" smooth="yes"/>
      <point x="372" y="441"/>
      <point x="382" y="431"/>
      <point x="390" y="417" type="curve" smooth="yes"/>
      <point x="396" y="404"/>
      <point x="403" y="396"/>
      <point x="415" y="396" type="curve" smooth="yes"/>
      <point x="428" y="396"/>
      <point x="434" y="405"/>
      <point x="434" y="418" type="curve" smooth="yes"/>
      <point x="434" y="439"/>
      <point x="411" y="457"/>
      <point x="386" y="457" type="curve" smooth="yes"/>
      <point x="358" y="457"/>
      <point x="336" y="437"/>
      <point x="309" y="410" type="curve" smooth="yes"/>
    </contour>
    <contour>
      <point x="306" y="-26" type="curve" smooth="yes"/>
      <point x="166" y="26"/>
      <point x="145" y="36"/>
      <point x="145" y="63" type="curve" smooth="yes"/>
      <point x="145" y="79"/>
      <point x="161" y="99"/>
      <point x="178" y="107" type="curve"/>
      <point x="180" y="112" type="line"/>
      <point x="145" y="96"/>
      <point x="121" y="69"/>
      <point x="121" y="52" type="curve" smooth="yes"/>
      <point x="121" y="22"/>
      <point x="149" y="0"/>
      <point x="279" y="-45" type="curve" smooth="yes"/>
      <point x="374" y="-78"/>
      <point x="396" y="-105"/>
      <point x="396" y="-141" type="curve" smooth="yes"/>
      <point x="396.0" y="-202"/>
      <point x="342.0" y="-242.0"/>
      <point x="236" y="-242" type="curve" smooth="yes"/>
      <point x="109.0" y="-242.0"/>
      <point x="55" y="-198"/>
      <point x="55" y="-136" type="curve" smooth="yes"/>
      <point x="55" y="-78"/>
      <point x="113.95866107871785" y="-33.006058290187894"/>
      <point x="230" y="-16" type="curve"/>
      <point x="228" y="-10" type="line"/>
      <point x="88" y="-34.0"/>
      <point x="35.0" y="-83.0"/>
      <point x="35" y="-137" type="curve" smooth="yes"/>
      <point x="35" y="-198"/>
      <point x="102.0" y="-247.0"/>
      <point x="231" y="-247" type="curve" smooth="yes"/>
      <point x="348.0" y="-247.0"/>
      <point x="417.0" y="-199"/>
      <point x="417" y="-133" type="curve" smooth="yes"/>
      <point x="417" y="-89"/>
      <point x="396" y="-59"/>
    </contour>
  </outline>
</glyph>
<glyph name="i" format="2">
  <advance width="167"/>
  <unicode hex="0069"/>
  <outline>
    <contour>
      <point x="73" y="510" type="curve" smooth="yes"/>
      <point x="90" y="510"/>
      <point x="105" y="525"/>
      <point x="105" y="541" type="curve" smooth="yes"/>
      <point x="105" y="558"/>
      <point x="90" y="573"/>
      <point x="73" y="573" type="curve" smooth="yes"/>
      <point x="57" y="573"/>
      <point x="42" y="558"/>
      <point x="42" y="541" type="curve" smooth="yes"/>
      <point x="42" y="525"/>
      <point x="57" y="510"/>
    </contour>
    <component base="dotlessi" xOffset="-4"/>
    <component base="dotaccent" xOffset="26" yOffset="-3"/>
  </outline>
</glyph>
<glyph name="m" format="2">
  <advance width="766"/>
  <unicode hex="006D"/>
  <outline>
    <contour>
      <point x="81" y="10" type="curve" smooth="yes"/>
      <point x="33" y="0" type="line" smooth="yes"/>
      <point x="30" y="0"/>
      <point x="27" y="1"/>
      <point x="27" y="-1" type="curve" smooth="yes"/>
      <point x="27" y="0"/>
      <point x="28" y="0"/>
      <point x="29" y="0" type="curve" smooth="yes"/>
      <point x="188" y="0" type="line" smooth="yes"/>
      <point x="188" y="0"/>
      <point x="188" y="0"/>
      <point x="188" y="-2" type="curve" smooth="yes"/>
      <point x="188" y="0"/>
      <point x="185" y="0"/>
      <point x="178" y="0" type="curve" smooth="yes"/>
      <point x="145" y="7" type="line" smooth="yes"/>
      <point x="133" y="8"/>
      <point x="122" y="13"/>
      <point x="122" y="24" type="curve" smooth="yes"/>
      <point x="122" y="427" type="line" smooth="yes"/>
      <point x="122" y="432"/>
      <point x="120" y="436"/>
      <point x="116" y="436" type="curve" smooth="yes"/>
      <point x="114" y="436"/>
      <point x="110" y="437"/>
      <point x="107" y="432" type="curve" smooth="yes"/>
      <point x="31" y="386" type="line" smooth="yes"/>
      <point x="31" y="384"/>
      <point x="27" y="385"/>
      <point x="27" y="383" type="curve" smooth="yes"/>
      <point x="27" y="387"/>
      <point x="27" y="389"/>
      <point x="27" y="389" type="curve" smooth="yes"/>
      <point x="81" y="389" type="line" smooth="yes"/>
      <point x="89" y="389"/>
      <point x="94" y="384"/>
      <point x="94" y="373" type="curve" smooth="yes"/>
      <point x="94" y="28" type="line" smooth="yes"/>
      <point x="94" y="9"/>
      <point x="89" y="8"/>
    </contour>
    <contour>
      <point x="410" y="313" type="line" smooth="yes"/>
      <point x="410" y="379"/>
      <point x="354" y="436"/>
      <point x="277" y="436" type="curve" smooth="yes"/>
      <point x="217" y="436"/>
      <point x="161" y="401"/>
      <point x="120" y="346" type="curve"/>
      <point x="118" y="340" type="line"/>
      <point x="115" y="346" type="line"/>
      <point x="119" y="351" type="line" smooth="yes"/>
      <point x="162" y="399"/>
      <point x="216" y="424"/>
      <point x="258" y="424" type="curve" smooth="yes"/>
      <point x="331" y="424"/>
      <point x="381" y="378"/>
      <point x="381" y="277" type="curve" smooth="yes"/>
      <point x="381" y="23" type="line" smooth="yes"/>
      <point x="381" y="22"/>
      <point x="372" y="11"/>
      <point x="364" y="9" type="curve" smooth="yes"/>
      <point x="329" y="1" type="line" smooth="yes"/>
      <point x="322" y="0"/>
      <point x="320" y="1"/>
      <point x="320" y="0" type="curve" smooth="yes"/>
      <point x="320" y="0"/>
      <point x="322" y="0"/>
      <point x="324" y="0" type="curve" smooth="yes"/>
      <point x="477" y="0" type="line" smooth="yes"/>
      <point x="483" y="0"/>
      <point x="483" y="3"/>
      <point x="483" y="1" type="curve" smooth="yes"/>
      <point x="483" y="0"/>
      <point x="481" y="0"/>
      <point x="472" y="1" type="curve" smooth="yes"/>
      <point x="435" y="9" type="line" smooth="yes"/>
      <point x="418" y="13"/>
      <point x="410" y="24"/>
      <point x="410" y="36" type="curve" smooth="yes"/>
    </contour>
    <contour>
      <point x="406" y="350" type="line" smooth="yes"/>
      <point x="419" y="361" type="line" smooth="yes"/>
      <point x="463" y="403"/>
      <point x="500" y="421"/>
      <point x="538" y="421" type="curve" smooth="yes"/>
      <point x="589" y="421"/>
      <point x="620" y="391"/>
      <point x="632" y="322" type="curve" smooth="yes"/>
      <point x="681" y="43" type="line" smooth="yes"/>
      <point x="684" y="20"/>
      <point x="677" y="12"/>
      <point x="655" y="8" type="curve" smooth="yes"/>
      <point x="624" y="1" type="line" smooth="yes"/>
      <point x="620" y="0"/>
      <point x="617" y="2"/>
      <point x="617" y="-1" type="curve" smooth="yes"/>
      <point x="617" y="0"/>
      <point x="620" y="0"/>
      <point x="626" y="0" type="curve" smooth="yes"/>
      <point x="754" y="0" type="line" smooth="yes"/>
      <point x="763" y="0"/>
      <point x="763" y="-1"/>
      <point x="763" y="-2" type="curve" smooth="yes"/>
      <point x="763" y="-2"/>
      <point x="762" y="-3"/>
      <point x="757" y="-1" type="curve" smooth="yes"/>
      <point x="738" y="10" type="line" smooth="yes"/>
      <point x="726" y="14"/>
      <point x="718" y="20"/>
      <point x="715" y="34" type="curve" smooth="yes"/>
      <point x="663" y="316" type="line" smooth="yes"/>
      <point x="649" y="392"/>
      <point x="610" y="436"/>
      <point x="550" y="436" type="curve" smooth="yes"/>
      <point x="508" y="436"/>
      <point x="469" y="414"/>
      <point x="420" y="359" type="curve" smooth="yes"/>
      <point x="411" y="349" type="line"/>
    </contour>
  </outline>
</glyph>
<glyph name="n" format="2">
  <advance width="442"/>
  <unicode hex="006E"/>
  <outline>
    <contour>
      <point x="101" y="349" type="line" smooth="yes"/>
      <point x="116" y="363" type="line" smooth="yes"/>
      <point x="163.14226448744233" y="406.9994468549462"/>
      <point x="199" y="422"/>
      <point x="228" y="422" type="curve" smooth="yes"/>
      <point x="278.0" y="422.0"/>
      <point x="309" y="388"/>
      <point x="320" y="318" type="curve" smooth="yes"/>
      <point x="365" y="26" type="line" smooth="yes"/>
      <point x="366" y="18"/>
      <point x="362" y="9"/>
      <point x="349" y="8" type="curve" smooth="yes"/>
      <point x="317" y="5" type="line" smooth="yes"/>
      <point x="314" y="5"/>
      <point x="312" y="4"/>
      <point x="312" y="2" type="curve" smooth="yes"/>
      <point x="312" y="1"/>
      <point x="314" y="0"/>
      <point x="316" y="0" type="curve" smooth="yes"/>
      <point x="431" y="0" type="line" smooth="yes"/>
      <point x="433" y="0"/>
      <point x="434" y="1"/>
      <point x="434" y="2" type="curve" smooth="yes"/>
      <point x="434" y="3"/>
      <point x="433" y="4"/>
      <point x="431" y="4" type="curve" smooth="yes"/>
      <point x="412" y="6" type="line" smooth="yes"/>
      <point x="399" y="7"/>
      <point x="394" y="15"/>
      <point x="392" y="26" type="curve" smooth="yes"/>
      <point x="347" y="320" type="line" smooth="yes"/>
      <point x="335.38030066155363" y="395.9153690111828"/>
      <point x="295.42105263157896" y="435.0"/>
      <point x="242" y="435" type="curve" smooth="yes"/>
      <point x="209.7310924369748" y="435.0"/>
      <point x="177.06225382943262" y="423.8581035741371"/>
      <point x="114" y="365" type="curve" smooth="yes"/>
      <point x="99" y="351" type="line"/>
    </contour>
    <component base="dotlessi"/>
  </outline>
</glyph>
<glyph name="t" format="2">
  <advance width="245"/>
  <unicode hex="0074"/>
  <outline>
    <contour>
      <point x="70" y="406" type="line" smooth="yes"/>
      <point x="76" y="404"/>
      <point x="78" y="401"/>
      <point x="78" y="396" type="curve" smooth="yes"/>
      <point x="78" y="64" type="line" smooth="yes"/>
      <point x="78" y="16.0"/>
      <point x="108.5974025974026" y="-7.0"/>
      <point x="154" y="-7" type="curve" smooth="yes"/>
      <point x="183" y="-7"/>
      <point x="206" y="7"/>
      <point x="223" y="40" type="curve" smooth="yes"/>
      <point x="224" y="43"/>
      <point x="222" y="44"/>
      <point x="221" y="42" type="curve" smooth="yes"/>
      <point x="209" y="17"/>
      <point x="187" y="3"/>
      <point x="159" y="3" type="curve" smooth="yes"/>
      <point x="125" y="3"/>
      <point x="105" y="25"/>
      <point x="105" y="71" type="curve" smooth="yes"/>
      <point x="105" y="516" type="line" smooth="yes"/>
      <point x="105" y="517"/>
      <point x="104" y="518"/>
      <point x="103" y="518" type="curve" smooth="yes"/>
      <point x="101" y="518"/>
      <point x="101" y="517"/>
      <point x="100" y="515" type="curve"/>
      <point x="82" y="447" type="line" smooth="yes"/>
      <point x="77" y="430"/>
      <point x="73" y="430"/>
      <point x="55" y="430" type="curve" smooth="yes"/>
      <point x="1" y="430" type="line" smooth="yes"/>
      <point x="0" y="430"/>
      <point x="-1" y="429"/>
      <point x="-1" y="428" type="curve" smooth="yes"/>
      <point x="-1" y="426"/>
      <point x="0" y="426"/>
      <point x="2" y="425" type="curve" smooth="yes"/>
    </contour>
    <contour>
      <point x="91" y="430" type="line"/>
      <point x="91" y="424" type="line"/>
      <point x="214" y="424" type="line"/>
      <point x="219" y="424"/>
      <point x="222" y="424"/>
      <point x="222" y="427" type="curve" smooth="yes"/>
      <point x="222" y="430"/>
      <point x="219" y="430"/>
      <point x="214" y="430" type="curve"/>
    </contour>
  </outline>
</glyph>
<glyph name="v" format="2">
  <advance width="395"/>
  <unicode hex="0076"/>
  <guideline x="356" y="415" angle="0" identifier="UfrvZ9RXAU"/>
  <outline>
    <contour>
      <point x="202" y="-9" type="curve" smooth="yes"/>
      <point x="203" y="-9" type="line" smooth="yes"/>
      <point x="205" y="-9"/>
      <point x="206" y="-7"/>
      <point x="209" y="2" type="curve" smooth="yes"/>
      <point x="353" y="381" type="line" smooth="yes"/>
      <point x="360" y="398"/>
      <point x="370" y="411"/>
      <point x="382" y="415" type="curve" smooth="yes"/>
      <point x="394" y="419" type="line" smooth="yes"/>
      <point x="399" y="421"/>
      <point x="401" y="421"/>
      <point x="401" y="423" type="curve" smooth="yes"/>
      <point x="401" y="424"/>
      <point x="400" y="425"/>
      <point x="399" y="425" type="curve" smooth="yes"/>
      <point x="263" y="425" type="line" smooth="yes"/>
      <point x="261" y="425"/>
      <point x="260" y="424"/>
      <point x="260" y="423" type="curve" smooth="yes"/>
      <point x="260" y="421"/>
      <point x="261" y="420"/>
      <point x="264" y="420" type="curve" smooth="yes"/>
      <point x="304" y="415" type="line" smooth="yes"/>
      <point x="343" y="410"/>
      <point x="346" y="396"/>
      <point x="337" y="371" type="curve" smooth="yes"/>
      <point x="207" y="22" type="line" smooth="yes"/>
      <point x="213" y="25" type="line"/>
      <point x="80" y="371" type="line" smooth="yes"/>
      <point x="70" y="396"/>
      <point x="74" y="410"/>
      <point x="113" y="415" type="curve" smooth="yes"/>
      <point x="153" y="420" type="line" smooth="yes"/>
      <point x="156" y="420"/>
      <point x="157" y="421"/>
      <point x="157" y="423" type="curve" smooth="yes"/>
      <point x="157" y="424"/>
      <point x="156" y="425"/>
      <point x="154" y="425" type="curve" smooth="yes"/>
      <point x="1" y="425" type="line" smooth="yes"/>
      <point x="0" y="425"/>
      <point x="-1" y="424"/>
      <point x="-1" y="423" type="curve" smooth="yes"/>
      <point x="-1" y="421"/>
      <point x="1" y="421"/>
      <point x="6" y="419" type="curve" smooth="yes"/>
      <point x="18" y="415" type="line" smooth="yes"/>
      <point x="33" y="410"/>
      <point x="41" y="397"/>
      <point x="47" y="381" type="curve" smooth="yes"/>
      <point x="195" y="2" type="line" smooth="yes"/>
      <point x="199" y="-8"/>
      <point x="200" y="-9"/>
    </contour>
  </outline>
</glyph>
<glyph name="braceleft" format="2">
  <advance width="343"/>
  <unicode hex="007B"/>
  <outline>
    <contour>
      <point x="140" y="289" type="curve" smooth="yes"/>
      <point x="140" y="289"/>
      <point x="140" y="289"/>
      <point x="139" y="289" type="curve" smooth="yes"/>
      <point x="194" y="289"/>
      <point x="230" y="327"/>
      <point x="230" y="383" type="curve" smooth="yes"/>
      <point x="230" y="460"/>
      <point x="155" y="528"/>
      <point x="155" y="598" type="curve" smooth="yes"/>
      <point x="155" y="695"/>
      <point x="201" y="754"/>
      <point x="260" y="754" type="curve" smooth="yes"/>
      <point x="334" y="754" type="line" smooth="yes"/>
      <point x="333" y="754"/>
      <point x="333" y="755"/>
      <point x="333" y="755" type="curve" smooth="yes"/>
      <point x="333" y="754"/>
      <point x="332" y="755"/>
      <point x="334" y="755" type="curve" smooth="yes"/>
      <point x="295" y="755" type="line" smooth="yes"/>
      <point x="196" y="755"/>
      <point x="126" y="692"/>
      <point x="126" y="600" type="curve" smooth="yes"/>
      <point x="126" y="495"/>
      <point x="207" y="428"/>
      <point x="207" y="342" type="curve" smooth="yes"/>
      <point x="207" y="312"/>
      <point x="182" y="297"/>
      <point x="146" y="297" type="curve" smooth="yes"/>
      <point x="126" y="297"/>
      <point x="94" y="314"/>
      <point x="80" y="314" type="curve" smooth="yes"/>
      <point x="65" y="314"/>
      <point x="53" y="301"/>
      <point x="53" y="290" type="curve" smooth="yes"/>
      <point x="53" y="279"/>
      <point x="66" y="268"/>
      <point x="84" y="268" type="curve" smooth="yes"/>
      <point x="93" y="268"/>
      <point x="120" y="283"/>
      <point x="145" y="283" type="curve" smooth="yes"/>
      <point x="185" y="283"/>
      <point x="207" y="265"/>
      <point x="207" y="234" type="curve" smooth="yes"/>
      <point x="207" y="153"/>
      <point x="126" y="84"/>
      <point x="126" y="-30" type="curve" smooth="yes"/>
      <point x="126" y="-120"/>
      <point x="200" y="-185"/>
      <point x="305" y="-185" type="curve" smooth="yes"/>
      <point x="333" y="-185" type="line" smooth="yes"/>
      <point x="331" y="-185"/>
      <point x="333" y="-187"/>
      <point x="333" y="-184" type="curve" smooth="yes"/>
      <point x="333" y="-183" type="line" smooth="yes"/>
      <point x="270" y="-183" type="line" smooth="yes"/>
      <point x="207" y="-183"/>
      <point x="155" y="-121"/>
      <point x="155" y="-28" type="curve" smooth="yes"/>
      <point x="155" y="47"/>
      <point x="230" y="119"/>
      <point x="230" y="193" type="curve" smooth="yes"/>
      <point x="230" y="247"/>
      <point x="199" y="290"/>
      <point x="140" y="290" type="curve" smooth="yes"/>
      <point x="141" y="290"/>
      <point x="140" y="290"/>
    </contour>
  </outline>
</glyph>
<glyph name="bar" format="2">
  <advance width="347"/>
  <unicode hex="007C"/>
  <outline>
    <contour>
      <point x="164" y="258" type="curve" smooth="yes"/>
      <point x="164" y="-73"/>
      <point x="161" y="-146"/>
      <point x="161" y="-231" type="curve" smooth="yes"/>
      <point x="161" y="-246"/>
      <point x="168" y="-250"/>
      <point x="173" y="-250" type="curve" smooth="yes"/>
      <point x="177" y="-250"/>
      <point x="185" y="-246"/>
      <point x="185" y="-231" type="curve" smooth="yes"/>
      <point x="185" y="-167"/>
      <point x="183" y="-75"/>
      <point x="183" y="257" type="curve" smooth="yes"/>
      <point x="183" y="587"/>
      <point x="185" y="663"/>
      <point x="185" y="745" type="curve" smooth="yes"/>
      <point x="185" y="762"/>
      <point x="177" y="765"/>
      <point x="173" y="765" type="curve" smooth="yes"/>
      <point x="168" y="765"/>
      <point x="161" y="761"/>
      <point x="161" y="745" type="curve" smooth="yes"/>
      <point x="161" y="652"/>
      <point x="164" y="589"/>
    </contour>
  </outline>
</glyph>
<glyph name="yen" format="2">
  <advance width="588"/>
  <unicode hex="00A5"/>
  <outline>
    <contour>
      <point x="494" y="173" type="curve" smooth="yes"/>
      <point x="517" y="173"/>
      <point x="526" y="186"/>
      <point x="526" y="199" type="curve" smooth="yes"/>
      <point x="526" y="212"/>
      <point x="517" y="225"/>
      <point x="494" y="225" type="curve" smooth="yes"/>
      <point x="472" y="225"/>
      <point x="426" y="208"/>
      <point x="294" y="208" type="curve" smooth="yes"/>
      <point x="162" y="208"/>
      <point x="118" y="225"/>
      <point x="94" y="225" type="curve" smooth="yes"/>
      <point x="72" y="225"/>
      <point x="62" y="212"/>
      <point x="62" y="199" type="curve" smooth="yes"/>
      <point x="62" y="186"/>
      <point x="72" y="173"/>
      <point x="94" y="173" type="curve" smooth="yes"/>
      <point x="117" y="173"/>
      <point x="162" y="190"/>
      <point x="294" y="190" type="curve" smooth="yes"/>
      <point x="426" y="190"/>
      <point x="472" y="173"/>
    </contour>
    <contour>
      <point x="238" y="328" type="line"/>
      <point x="149" y="332"/>
      <point x="115" y="344"/>
      <point x="94" y="344" type="curve" smooth="yes"/>
      <point x="72" y="344"/>
      <point x="62" y="331"/>
      <point x="62" y="318" type="curve" smooth="yes"/>
      <point x="62" y="305"/>
      <point x="72" y="292"/>
      <point x="94" y="292" type="curve" smooth="yes"/>
      <point x="115" y="292"/>
      <point x="149" y="303"/>
      <point x="241" y="308" type="curve"/>
    </contour>
    <contour>
      <point x="494" y="292" type="curve" smooth="yes"/>
      <point x="517" y="292"/>
      <point x="526" y="305"/>
      <point x="526" y="318" type="curve" smooth="yes"/>
      <point x="526" y="331"/>
      <point x="517" y="344"/>
      <point x="494" y="344" type="curve" smooth="yes"/>
      <point x="474" y="344"/>
      <point x="438" y="333"/>
      <point x="338" y="327" type="curve"/>
      <point x="341" y="308" type="line"/>
      <point x="440" y="302"/>
      <point x="475" y="292"/>
    </contour>
    <component base="Y" xScale="0.9135172474836407" yScale="0.9135172474836407" xOffset="15"/>
  </outline>
</glyph>
<glyph name="acute" format="2">
  <advance width="243"/>
  <unicode hex="00B4"/>
  <anchor x="52" y="502" name="center"/>
  <outline>
    <contour>
      <point x="54" y="517" type="curve" smooth="yes"/>
      <point x="147" y="655" type="line" smooth="yes"/>
      <point x="148" y="667"/>
      <point x="145" y="672"/>
      <point x="158" y="672" type="curve" smooth="yes"/>
      <point x="163" y="672"/>
      <point x="170" y="662"/>
      <point x="170" y="656" type="curve" smooth="yes"/>
      <point x="170" y="646"/>
      <point x="169" y="640"/>
      <point x="165" y="628" type="curve" smooth="yes"/>
      <point x="49" y="519" type="line" smooth="yes"/>
      <point x="52" y="516"/>
      <point x="53" y="516"/>
      <point x="54" y="516" type="curve" smooth="yes"/>
      <point x="56" y="516"/>
      <point x="55" y="514"/>
      <point x="55" y="515" type="curve" smooth="yes"/>
      <point x="55" y="516"/>
      <point x="56" y="517"/>
    </contour>
  </outline>
</glyph>
<glyph name="Thorn" format="2">
  <advance width="560"/>
  <unicode hex="00DE"/>
  <outline>
    <contour>
      <point x="138" y="561" type="line"/>
      <point x="258" y="561" type="line" smooth="yes"/>
      <point x="388" y="561"/>
      <point x="482" y="478"/>
      <point x="482" y="354" type="curve" smooth="yes"/>
      <point x="482" y="231"/>
      <point x="400" y="154"/>
      <point x="278" y="154" type="curve" smooth="yes"/>
      <point x="212" y="154"/>
      <point x="164" y="169"/>
      <point x="125" y="196" type="curve"/>
      <point x="115" y="187" type="line"/>
      <point x="158" y="157"/>
      <point x="216" y="142"/>
      <point x="283" y="142" type="curve" smooth="yes"/>
      <point x="419" y="142"/>
      <point x="517" y="223"/>
      <point x="517" y="341" type="curve" smooth="yes"/>
      <point x="517" y="472"/>
      <point x="415" y="568"/>
      <point x="240" y="568" type="curve" smooth="yes"/>
      <point x="138" y="568" type="line"/>
    </contour>
    <component base="I" xOffset="-9"/>
  </outline>
</glyph>
<glyph name="thorn" format="2">
  <advance width="440"/>
  <unicode hex="00FE"/>
  <outline>
    <contour>
      <point x="87" y="699" type="line" smooth="yes"/>
      <point x="87" y="706"/>
      <point x="84" y="709"/>
      <point x="80" y="709" type="curve" smooth="yes"/>
      <point x="76" y="709"/>
      <point x="72" y="707"/>
      <point x="69" y="704" type="curve" smooth="yes"/>
      <point x="-7" y="664" type="line" smooth="yes"/>
      <point x="-5" y="664"/>
      <point x="-9" y="663"/>
      <point x="-9" y="661" type="curve" smooth="yes"/>
      <point x="-9" y="666"/>
      <point x="-12" y="665"/>
      <point x="-15" y="665" type="curve" smooth="yes"/>
      <point x="33" y="665" type="line" smooth="yes"/>
      <point x="51" y="665"/>
      <point x="56" y="662"/>
      <point x="56" y="650" type="curve" smooth="yes"/>
      <point x="56" y="-198" type="line" smooth="yes"/>
      <point x="56" y="-201"/>
      <point x="56" y="-221"/>
      <point x="42" y="-223" type="curve" smooth="yes"/>
      <point x="4" y="-231" type="line" smooth="yes"/>
      <point x="-1" y="-230"/>
      <point x="-5" y="-230"/>
      <point x="-6" y="-233" type="curve" smooth="yes"/>
      <point x="-6" y="-235"/>
      <point x="-6" y="-236"/>
      <point x="5" y="-236" type="curve" smooth="yes"/>
      <point x="179" y="-236" type="line" smooth="yes"/>
      <point x="181" y="-236"/>
      <point x="182" y="-233"/>
      <point x="182" y="-234" type="curve" smooth="yes"/>
      <point x="182" y="-235"/>
      <point x="180" y="-233"/>
      <point x="179" y="-236" type="curve" smooth="yes"/>
      <point x="123" y="-226" type="line" smooth="yes"/>
      <point x="100" y="-223"/>
      <point x="87" y="-215"/>
      <point x="87" y="-194" type="curve" smooth="yes"/>
    </contour>
    <contour>
      <point x="84" y="358" type="line"/>
      <point x="148" y="419"/>
      <point x="186" y="440"/>
      <point x="227" y="440" type="curve" smooth="yes"/>
      <point x="307" y="440"/>
      <point x="380" y="362"/>
      <point x="380" y="211" type="curve" smooth="yes"/>
      <point x="380" y="87"/>
      <point x="313" y="16"/>
      <point x="231" y="16" type="curve" smooth="yes"/>
      <point x="168" y="16"/>
      <point x="125" y="38"/>
      <point x="96" y="85" type="curve"/>
      <point x="83" y="86" type="line"/>
      <point x="121" y="32"/>
      <point x="152" y="10"/>
      <point x="218" y="10" type="curve" smooth="yes"/>
      <point x="316" y="10"/>
      <point x="414" y="111"/>
      <point x="414" y="253" type="curve" smooth="yes"/>
      <point x="414" y="381"/>
      <point x="343" y="458"/>
      <point x="264" y="458" type="curve" smooth="yes"/>
      <point x="207" y="458"/>
      <point x="143" y="439"/>
      <point x="77" y="348" type="curve"/>
    </contour>
  </outline>
</glyph>
<glyph name="ring" format="2">
  <advance width="313"/>
  <unicode hex="02DA"/>
  <outline>
    <contour>
      <point x="156" y="530" type="curve" smooth="yes"/>
      <point x="115" y="530"/>
      <point x="90" y="556"/>
      <point x="90" y="599" type="curve" smooth="yes"/>
      <point x="90" y="640"/>
      <point x="115" y="665"/>
      <point x="156" y="665" type="curve" smooth="yes"/>
      <point x="197" y="665"/>
      <point x="223" y="640"/>
      <point x="223" y="599" type="curve" smooth="yes"/>
      <point x="223" y="557"/>
      <point x="197" y="530"/>
    </contour>
    <contour>
      <point x="156" y="540" type="curve" smooth="yes"/>
      <point x="192" y="540"/>
      <point x="214" y="564"/>
      <point x="214" y="599" type="curve" smooth="yes"/>
      <point x="214" y="633"/>
      <point x="192" y="655"/>
      <point x="155" y="655" type="curve" smooth="yes"/>
      <point x="121" y="655"/>
      <point x="101" y="634"/>
      <point x="101" y="599" type="curve" smooth="yes"/>
      <point x="101" y="563"/>
      <point x="122" y="540"/>
    </contour>
  </outline>
</glyph>
<glyph name="ogonek" format="2">
  <advance width="325"/>
  <unicode hex="02DB"/>
  <anchor x="325" y="-79" name="right"/>
  <outline>
    <contour>
      <point x="239" y="24" type="line"/>
      <point x="106" y="-44"/>
      <point x="76" y="-99"/>
      <point x="76" y="-154" type="curve" smooth="yes"/>
      <point x="76" y="-199"/>
      <point x="110" y="-236"/>
      <point x="165" y="-236" type="curve" smooth="yes"/>
      <point x="210" y="-236"/>
      <point x="237" y="-209"/>
      <point x="237" y="-177" type="curve" smooth="yes"/>
      <point x="237" y="-166"/>
      <point x="231" y="-159"/>
      <point x="221" y="-159" type="curve" smooth="yes"/>
      <point x="212" y="-159"/>
      <point x="202" y="-166"/>
      <point x="202" y="-179" type="curve" smooth="yes"/>
      <point x="202" y="-210"/>
      <point x="190" y="-226"/>
      <point x="170" y="-226" type="curve" smooth="yes"/>
      <point x="145" y="-226"/>
      <point x="123" y="-202"/>
      <point x="123" y="-150" type="curve" smooth="yes"/>
      <point x="123" y="-87"/>
      <point x="143" y="-28"/>
      <point x="234" y="25" type="curve"/>
    </contour>
  </outline>
</glyph>
<glyph name="invertedbrevecmb" format="2">
  <advance width="298"/>
  <unicode hex="0311"/>
  <outline>
    <contour>
      <point x="155" y="650" type="curve" smooth="yes"/>
      <point x="341" y="650"/>
      <point x="485" y="597"/>
      <point x="485" y="534" type="curve" smooth="yes"/>
      <point x="485" y="533"/>
      <point x="469" y="532"/>
      <point x="448" y="532" type="curve" smooth="yes"/>
      <point x="432" y="532"/>
      <point x="413" y="529"/>
      <point x="400" y="531" type="curve" smooth="yes"/>
      <point x="357" y="583"/>
      <point x="281" y="604"/>
      <point x="155" y="604" type="curve" smooth="yes"/>
      <point x="26" y="604"/>
      <point x="-46" y="582"/>
      <point x="-90" y="532" type="curve" smooth="yes"/>
      <point x="-105" y="532"/>
      <point x="-121" y="532"/>
      <point x="-141" y="532" type="curve" smooth="yes"/>
      <point x="-159" y="532"/>
      <point x="-178" y="533"/>
      <point x="-178" y="535" type="curve" smooth="yes"/>
      <point x="-178" y="594"/>
      <point x="-34" y="650"/>
    </contour>
  </outline>
</glyph>
<glyph name="emdash" format="2">
  <advance width="914"/>
  <unicode hex="2014"/>
  <outline>
    <contour>
      <point x="36" y="228" type="curve" smooth="yes"/>
      <point x="36" y="230"/>
      <point x="35" y="231"/>
      <point x="36" y="231" type="curve" smooth="yes"/>
      <point x="878" y="231" type="line" smooth="yes"/>
      <point x="878" y="231"/>
      <point x="878" y="230"/>
      <point x="878" y="228" type="curve" smooth="yes"/>
      <point x="878" y="226"/>
      <point x="878" y="225"/>
      <point x="878" y="225" type="curve" smooth="yes"/>
      <point x="37" y="225" type="line" smooth="yes"/>
      <point x="37" y="225"/>
      <point x="36" y="226"/>
    </contour>
  </outline>
</glyph>
<glyph name="numero" format="2">
  <advance width="939"/>
  <unicode hex="2116"/>
  <outline>
    <contour>
      <point x="562" y="88" type="curve" smooth="yes"/>
      <point x="562" y="87"/>
      <point x="561" y="87"/>
      <point x="563" y="87" type="curve" smooth="yes"/>
      <point x="865" y="87" type="line" smooth="yes"/>
      <point x="867" y="87"/>
      <point x="867" y="87"/>
      <point x="867" y="88" type="curve" smooth="yes"/>
      <point x="867" y="90"/>
      <point x="866" y="91"/>
      <point x="865" y="91" type="curve" smooth="yes"/>
      <point x="564" y="91" type="line" smooth="yes"/>
      <point x="563" y="91"/>
      <point x="562" y="90"/>
    </contour>
    <contour>
      <point x="704" y="563" type="curve" smooth="yes"/>
      <point x="600" y="563"/>
      <point x="530" y="475"/>
      <point x="530" y="368" type="curve" smooth="yes"/>
      <point x="530" y="250"/>
      <point x="604" y="163"/>
      <point x="704" y="163" type="curve" smooth="yes"/>
      <point x="801" y="163"/>
      <point x="880" y="247"/>
      <point x="880" y="368" type="curve" smooth="yes"/>
      <point x="880" y="481"/>
      <point x="805" y="563"/>
    </contour>
    <contour>
      <point x="846" y="334" type="curve" smooth="yes"/>
      <point x="846" y="234"/>
      <point x="792" y="172"/>
      <point x="714" y="172" type="curve" smooth="yes"/>
      <point x="633" y="172"/>
      <point x="564" y="259"/>
      <point x="564" y="392" type="curve" smooth="yes"/>
      <point x="564" y="489"/>
      <point x="620" y="556"/>
      <point x="696" y="556" type="curve" smooth="yes"/>
      <point x="781" y="556"/>
      <point x="846" y="466"/>
    </contour>
    <contour>
      <point x="245" y="-1" type="curve" smooth="yes"/>
      <point x="245" y="0"/>
      <point x="239" y="-3"/>
      <point x="233" y="0" type="curve" smooth="yes"/>
      <point x="178" y="27" type="line" smooth="yes"/>
      <point x="160" y="35"/>
      <point x="150" y="44"/>
      <point x="150" y="59" type="curve" smooth="yes"/>
      <point x="150" y="541" type="line"/>
      <point x="162" y="536" type="line"/>
      <point x="426" y="60" type="line" smooth="yes"/>
      <point x="439" y="35"/>
      <point x="442" y="25"/>
      <point x="442" y="13" type="curve" smooth="yes"/>
      <point x="442" y="4"/>
      <point x="447" y="0"/>
      <point x="455" y="0" type="curve" smooth="yes"/>
      <point x="495" y="0" type="line" smooth="yes"/>
      <point x="501" y="0"/>
      <point x="507" y="4"/>
      <point x="507" y="11" type="curve" smooth="yes"/>
      <point x="507" y="27"/>
      <point x="444" y="88"/>
      <point x="444" y="124" type="curve" smooth="yes"/>
      <point x="444" y="565" type="line" smooth="yes"/>
      <point x="444" y="576"/>
      <point x="448" y="588"/>
      <point x="457" y="592" type="curve" smooth="yes"/>
      <point x="511" y="619" type="line" smooth="yes"/>
      <point x="526" y="626"/>
      <point x="534" y="625"/>
      <point x="534" y="630" type="curve" smooth="yes"/>
      <point x="534" y="631"/>
      <point x="528" y="631"/>
      <point x="522" y="631" type="curve" smooth="yes"/>
      <point x="341" y="631" type="line" smooth="yes"/>
      <point x="334" y="631"/>
      <point x="330" y="631"/>
      <point x="330" y="632" type="curve" smooth="yes"/>
      <point x="330" y="629"/>
      <point x="335" y="630"/>
      <point x="344" y="626" type="curve" smooth="yes"/>
      <point x="412" y="595" type="line" smooth="yes"/>
      <point x="426" y="589"/>
      <point x="429" y="579"/>
      <point x="429" y="565" type="curve" smooth="yes"/>
      <point x="429" y="120" type="line"/>
      <point x="427" y="127" type="line"/>
      <point x="160" y="609" type="line" smooth="yes"/>
      <point x="151" y="625"/>
      <point x="140" y="630"/>
      <point x="130" y="630" type="curve" smooth="yes"/>
      <point x="93" y="630" type="line" smooth="yes"/>
      <point x="85" y="630"/>
      <point x="79" y="628"/>
      <point x="79" y="625" type="curve" smooth="yes"/>
      <point x="79" y="623"/>
      <point x="78" y="626"/>
      <point x="82" y="621" type="curve" smooth="yes"/>
      <point x="126" y="571" type="line" smooth="yes"/>
      <point x="129" y="566"/>
      <point x="135" y="554"/>
      <point x="135" y="541" type="curve" smooth="yes"/>
      <point x="135" y="59" type="line" smooth="yes"/>
      <point x="135" y="45"/>
      <point x="123" y="36"/>
      <point x="106" y="27" type="curve" smooth="yes"/>
      <point x="61" y="5" type="line" smooth="yes"/>
      <point x="54" y="1"/>
      <point x="48" y="2"/>
      <point x="48" y="0" type="curve" smooth="yes"/>
      <point x="48" y="0"/>
      <point x="54" y="0"/>
      <point x="63" y="0" type="curve" smooth="yes"/>
      <point x="228" y="0" type="line" smooth="yes"/>
      <point x="238" y="0"/>
      <point x="245" y="0"/>
    </contour>
  </outline>
</glyph>
<glyph name="trademark" format="2">
  <advance width="980"/>
  <unicode hex="2122"/>
  <outline>
    <contour>
      <point x="72" y="700" type="line" smooth="yes"/>
      <point x="65" y="700"/>
      <point x="52" y="713"/>
      <point x="46" y="713" type="curve" smooth="yes"/>
      <point x="46" y="713"/>
      <point x="46" y="716"/>
      <point x="45" y="714" type="curve" smooth="yes"/>
      <point x="30" y="610" type="line" smooth="yes"/>
      <point x="30" y="610"/>
      <point x="30" y="608"/>
      <point x="29" y="607" type="curve" smooth="yes"/>
      <point x="29" y="606"/>
      <point x="27" y="606"/>
      <point x="32" y="606" type="curve" smooth="yes"/>
      <point x="59" y="663"/>
      <point x="88" y="683"/>
      <point x="123" y="683" type="curve" smooth="yes"/>
      <point x="197" y="683" type="line"/>
      <point x="197" y="336" type="line" smooth="yes"/>
      <point x="197" y="323"/>
      <point x="190" y="317"/>
      <point x="173" y="314" type="curve" smooth="yes"/>
      <point x="133" y="306" type="line" smooth="yes"/>
      <point x="125" y="305"/>
      <point x="121" y="306"/>
      <point x="121" y="306" type="curve" smooth="yes"/>
      <point x="121" y="306"/>
      <point x="126" y="306"/>
      <point x="132" y="306" type="curve" smooth="yes"/>
      <point x="310" y="306" type="line" smooth="yes"/>
      <point x="316" y="306"/>
      <point x="320" y="305"/>
      <point x="320" y="304" type="curve" smooth="yes"/>
      <point x="320" y="305"/>
      <point x="316" y="304"/>
      <point x="308" y="306" type="curve" smooth="yes"/>
      <point x="262" y="315" type="line" smooth="yes"/>
      <point x="250" y="317"/>
      <point x="244" y="323"/>
      <point x="244" y="336" type="curve" smooth="yes"/>
      <point x="244" y="683" type="line"/>
      <point x="310" y="683" type="line" smooth="yes"/>
      <point x="349" y="683"/>
      <point x="380" y="663"/>
      <point x="406" y="607" type="curve" smooth="yes"/>
      <point x="411" y="607"/>
      <point x="409" y="606"/>
      <point x="411" y="607" type="curve" smooth="yes"/>
      <point x="410" y="608"/>
      <point x="409" y="609"/>
      <point x="409" y="610" type="curve" smooth="yes"/>
      <point x="393" y="721" type="line" smooth="yes"/>
      <point x="394" y="717"/>
      <point x="395" y="713"/>
      <point x="395" y="713" type="curve" smooth="yes"/>
      <point x="390" y="713"/>
      <point x="367" y="700"/>
      <point x="367" y="700" type="curve" smooth="yes"/>
    </contour>
    <contour>
      <point x="692" y="433" type="line"/>
      <point x="550" y="692" type="line" smooth="yes"/>
      <point x="546" y="699"/>
      <point x="538" y="700"/>
      <point x="528" y="700" type="curve" smooth="yes"/>
      <point x="462" y="700" type="line" smooth="yes"/>
      <point x="454" y="700"/>
      <point x="450" y="700"/>
      <point x="449" y="700" type="curve" smooth="yes"/>
      <point x="448" y="698"/>
      <point x="453" y="698"/>
      <point x="459" y="696" type="curve" smooth="yes"/>
      <point x="502" y="684" type="line" smooth="yes"/>
      <point x="511" y="680"/>
      <point x="513" y="672"/>
      <point x="512" y="660" type="curve" smooth="yes"/>
      <point x="496" y="341" type="line" smooth="yes"/>
      <point x="496" y="339"/>
      <point x="487" y="331"/>
      <point x="472" y="325" type="curve" smooth="yes"/>
      <point x="432" y="309" type="line" smooth="yes"/>
      <point x="426" y="307"/>
      <point x="426" y="308"/>
      <point x="426" y="306" type="curve" smooth="yes"/>
      <point x="426" y="305"/>
      <point x="427" y="306"/>
      <point x="429" y="306" type="curve" smooth="yes"/>
      <point x="579" y="306" type="line" smooth="yes"/>
      <point x="584" y="306"/>
      <point x="586" y="306"/>
      <point x="586" y="306" type="curve" smooth="yes"/>
      <point x="586" y="308"/>
      <point x="584" y="308"/>
      <point x="582" y="309" type="curve" smooth="yes"/>
      <point x="535" y="329" type="line" smooth="yes"/>
      <point x="518" y="335"/>
      <point x="512" y="343"/>
      <point x="512" y="341" type="curve" smooth="yes"/>
      <point x="529" y="634" type="line"/>
      <point x="527" y="628" type="line"/>
      <point x="673" y="363" type="line" smooth="yes"/>
      <point x="674" y="362"/>
      <point x="675" y="359"/>
      <point x="678" y="359" type="curve" smooth="yes"/>
      <point x="681" y="359"/>
      <point x="680" y="361"/>
      <point x="683" y="365" type="curve" smooth="yes"/>
      <point x="837" y="645" type="line"/>
      <point x="822" y="644" type="line"/>
      <point x="836" y="341" type="line" smooth="yes"/>
      <point x="837" y="326"/>
      <point x="831" y="318"/>
      <point x="819" y="315" type="curve" smooth="yes"/>
      <point x="779" y="306" type="line" smooth="yes"/>
      <point x="778" y="306"/>
      <point x="776" y="305"/>
      <point x="776" y="306" type="curve" smooth="yes"/>
      <point x="776" y="306"/>
      <point x="777" y="306"/>
      <point x="779" y="306" type="curve" smooth="yes"/>
      <point x="934" y="306" type="line" smooth="yes"/>
      <point x="935" y="306"/>
      <point x="935" y="305"/>
      <point x="935" y="304" type="curve" smooth="yes"/>
      <point x="935" y="303"/>
      <point x="935" y="305"/>
      <point x="934" y="305" type="curve" smooth="yes"/>
      <point x="897" y="316" type="line" smooth="yes"/>
      <point x="882" y="321"/>
      <point x="875" y="326"/>
      <point x="875" y="341" type="curve" smooth="yes"/>
      <point x="861" y="666" type="line" smooth="yes"/>
      <point x="861" y="679"/>
      <point x="866" y="687"/>
      <point x="876" y="689" type="curve" smooth="yes"/>
      <point x="921" y="697" type="line" smooth="yes"/>
      <point x="922" y="697"/>
      <point x="922" y="699"/>
      <point x="922" y="699" type="curve" smooth="yes"/>
      <point x="922" y="699"/>
      <point x="921" y="700"/>
      <point x="918" y="700" type="curve" smooth="yes"/>
      <point x="918" y="700"/>
      <point x="872" y="700"/>
      <point x="862" y="700" type="curve" smooth="yes"/>
      <point x="852" y="700"/>
      <point x="846" y="699"/>
      <point x="842" y="692" type="curve" smooth="yes"/>
      <point x="699" y="431" type="line"/>
    </contour>
  </outline>
</glyph>
<glyph name="dieresis.case" format="2">
  <outline>
    <contour>
      <point x="110" y="748" type="curve" smooth="yes"/>
      <point x="129" y="748"/>
      <point x="141" y="761"/>
      <point x="141" y="777" type="curve" smooth="yes"/>
      <point x="141" y="794"/>
      <point x="129" y="806"/>
      <point x="110" y="806" type="curve" smooth="yes"/>
      <point x="92" y="806"/>
      <point x="80" y="794"/>
      <point x="80" y="777" type="curve" smooth="yes"/>
      <point x="80" y="761"/>
      <point x="92" y="748"/>
    </contour>
    <contour>
      <point x="299" y="758" type="curve" smooth="yes"/>
      <point x="317" y="758"/>
      <point x="330" y="770"/>
      <point x="330" y="787" type="curve" smooth="yes"/>
      <point x="330" y="803"/>
      <point x="317" y="816"/>
      <point x="299" y="816" type="curve" smooth="yes"/>
      <point x="281" y="816"/>
      <point x="268" y="794"/>
      <point x="268" y="777" type="curve" smooth="yes"/>
      <point x="268" y="761"/>
      <point x="281" y="758"/>
    </contour>
  </outline>
</glyph>
<glyph name="dotbelowcombcmb.case" format="2">
  <outline>
    <contour>
      <point x="149" y="-159" type="curve" smooth="yes"/>
      <point x="169" y="-159"/>
      <point x="182" y="-144"/>
      <point x="182" y="-126" type="curve" smooth="yes"/>
      <point x="182" y="-108"/>
      <point x="169" y="-93"/>
      <point x="149" y="-93" type="curve" smooth="yes"/>
      <point x="130" y="-93"/>
      <point x="116" y="-108"/>
      <point x="116" y="-126" type="curve" smooth="yes"/>
      <point x="116" y="-144"/>
      <point x="130" y="-159"/>
    </contour>
  </outline>
</glyph>
<glyph name="eight.case" format="2">
  <advance width="583"/>
  <outline>
    <contour>
      <point x="264" y="-9" type="curve" smooth="yes"/>
      <point x="352" y="-9"/>
      <point x="433" y="64"/>
      <point x="433" y="164" type="curve" smooth="yes"/>
      <point x="433" y="231"/>
      <point x="390" y="301"/>
      <point x="276" y="347" type="curve" smooth="yes"/>
      <point x="152" y="397"/>
      <point x="107" y="466"/>
      <point x="107" y="558" type="curve" smooth="yes"/>
      <point x="107" y="643"/>
      <point x="171" y="700"/>
      <point x="263" y="700" type="curve" smooth="yes"/>
      <point x="361" y="700"/>
      <point x="417" y="628"/>
      <point x="417" y="544" type="curve" smooth="yes"/>
      <point x="417" y="465"/>
      <point x="365" y="384"/>
      <point x="298" y="345" type="curve"/>
      <point x="293" y="322" type="line"/>
      <point x="384" y="345"/>
      <point x="450" y="437"/>
      <point x="450" y="532" type="curve" smooth="yes"/>
      <point x="450" y="638"/>
      <point x="366" y="707"/>
      <point x="268" y="707" type="curve" smooth="yes"/>
      <point x="171" y="707"/>
      <point x="77" y="637"/>
      <point x="77" y="533" type="curve" smooth="yes"/>
      <point x="77" y="445"/>
      <point x="127" y="371"/>
      <point x="242" y="324" type="curve" smooth="yes"/>
      <point x="365" y="275"/>
      <point x="400" y="207"/>
      <point x="400" y="140" type="curve" smooth="yes"/>
      <point x="400" y="50"/>
      <point x="344" y="-2"/>
      <point x="265" y="-2" type="curve" smooth="yes"/>
      <point x="179" y="-2"/>
      <point x="117" y="55"/>
      <point x="117" y="165" type="curve" smooth="yes"/>
      <point x="117" y="240"/>
      <point x="160" y="307"/>
      <point x="228" y="346" type="curve"/>
      <point x="235" y="355" type="line"/>
      <point x="136" y="336"/>
      <point x="78" y="252"/>
      <point x="78" y="163" type="curve" smooth="yes"/>
      <point x="78" y="58"/>
      <point x="161" y="-9"/>
    </contour>
  </outline>
</glyph>
<glyph name="gravedoublecmb.case" format="2">
  <anchor x="351" y="675" name="center"/>
  <outline>
    <contour>
      <point x="626" y="732" type="curve" smooth="yes"/>
      <point x="555" y="797" type="line" smooth="yes"/>
      <point x="540" y="815"/>
      <point x="524" y="822"/>
      <point x="488" y="822" type="curve" smooth="yes"/>
      <point x="468" y="822"/>
      <point x="461" y="816"/>
      <point x="461" y="804" type="curve" smooth="yes"/>
      <point x="461" y="793"/>
      <point x="464" y="779"/>
      <point x="503" y="762" type="curve" smooth="yes"/>
      <point x="595" y="723" type="line" smooth="yes"/>
      <point x="604" y="718"/>
      <point x="615" y="712"/>
      <point x="621" y="712" type="curve" smooth="yes"/>
      <point x="627" y="712"/>
      <point x="630" y="715"/>
      <point x="630" y="722" type="curve" smooth="yes"/>
      <point x="630" y="726"/>
      <point x="628" y="730"/>
    </contour>
    <contour>
      <point x="41" y="732" type="curve" smooth="yes"/>
      <point x="-30" y="797" type="line" smooth="yes"/>
      <point x="-44" y="815"/>
      <point x="-61" y="822"/>
      <point x="-96" y="822" type="curve" smooth="yes"/>
      <point x="-117" y="822"/>
      <point x="-124" y="816"/>
      <point x="-124" y="804" type="curve" smooth="yes"/>
      <point x="-124" y="793"/>
      <point x="-120" y="779"/>
      <point x="-82" y="762" type="curve" smooth="yes"/>
      <point x="11" y="723" type="line" smooth="yes"/>
      <point x="20" y="718"/>
      <point x="30" y="712"/>
      <point x="36" y="712" type="curve" smooth="yes"/>
      <point x="43" y="712"/>
      <point x="46" y="715"/>
      <point x="46" y="722" type="curve" smooth="yes"/>
      <point x="46" y="726"/>
      <point x="43" y="730"/>
    </contour>
  </outline>
</glyph>
<glyph name="h.alt" format="2">
  <advance width="461"/>
  <outline>
    <contour>
      <point x="105" y="711" type="line" smooth="yes"/>
      <point x="105" y="713"/>
      <point x="104" y="715"/>
      <point x="102" y="715" type="curve" smooth="yes"/>
      <point x="101" y="715"/>
      <point x="100" y="715"/>
      <point x="97" y="714" type="curve" smooth="yes"/>
      <point x="23" y="693" type="line" smooth="yes"/>
      <point x="21" y="692"/>
      <point x="20" y="692"/>
      <point x="20" y="690" type="curve" smooth="yes"/>
      <point x="20" y="689"/>
      <point x="21" y="688"/>
      <point x="22" y="688" type="curve" smooth="yes"/>
      <point x="74" y="688" type="line" smooth="yes"/>
      <point x="77" y="688"/>
      <point x="78" y="686"/>
      <point x="78" y="684" type="curve" smooth="yes"/>
      <point x="78" y="20" type="line" smooth="yes"/>
      <point x="78" y="15"/>
      <point x="74" y="11"/>
      <point x="66" y="10" type="curve" smooth="yes"/>
      <point x="27" y="6" type="line" smooth="yes"/>
      <point x="22" y="5"/>
      <point x="20" y="3"/>
      <point x="20" y="2" type="curve" smooth="yes"/>
      <point x="20" y="1"/>
      <point x="21.0" y="0"/>
      <point x="22" y="0" type="curve" smooth="yes"/>
      <point x="158" y="0" type="line" smooth="yes"/>
      <point x="160" y="0"/>
      <point x="161" y="1"/>
      <point x="161" y="2" type="curve" smooth="yes"/>
      <point x="161" y="4"/>
      <point x="160" y="5"/>
      <point x="157" y="5" type="curve" smooth="yes"/>
      <point x="117" y="10" type="line" smooth="yes"/>
      <point x="109" y="11"/>
      <point x="105" y="15"/>
      <point x="105" y="21" type="curve" smooth="yes"/>
    </contour>
    <contour>
      <point x="101" y="349" type="line" smooth="yes"/>
      <point x="116" y="363" type="line" smooth="yes"/>
      <point x="162" y="406"/>
      <point x="203" y="422"/>
      <point x="243" y="422" type="curve" smooth="yes"/>
      <point x="308" y="422"/>
      <point x="355" y="384"/>
      <point x="355" y="298" type="curve" smooth="yes"/>
      <point x="355" y="28" type="line" smooth="yes"/>
      <point x="355" y="20"/>
      <point x="352" y="12"/>
      <point x="339" y="10" type="curve" smooth="yes"/>
      <point x="297" y="5" type="line" smooth="yes"/>
      <point x="294" y="5"/>
      <point x="292" y="4"/>
      <point x="292" y="2" type="curve" smooth="yes"/>
      <point x="292" y="1"/>
      <point x="294" y="0"/>
      <point x="296" y="0" type="curve" smooth="yes"/>
      <point x="434" y="0" type="line" smooth="yes"/>
      <point x="436" y="0"/>
      <point x="437" y="1"/>
      <point x="437" y="2" type="curve" smooth="yes"/>
      <point x="437" y="3"/>
      <point x="436" y="4"/>
      <point x="434" y="4" type="curve" smooth="yes"/>
      <point x="402" y="8" type="line" smooth="yes"/>
      <point x="389" y="10"/>
      <point x="382" y="17"/>
      <point x="382" y="28" type="curve" smooth="yes"/>
      <point x="382" y="300" type="line" smooth="yes"/>
      <point x="382" y="390"/>
      <point x="328" y="435"/>
      <point x="257" y="435" type="curve" smooth="yes"/>
      <point x="213" y="435"/>
      <point x="175" y="422"/>
      <point x="114" y="365" type="curve" smooth="yes"/>
      <point x="99" y="351" type="line"/>
    </contour>
  </outline>
</glyph>
<glyph name="m.alt" format="2">
  <advance width="728"/>
  <outline>
    <contour>
      <point x="101" y="349" type="line" smooth="yes"/>
      <point x="116" y="363" type="line" smooth="yes"/>
      <point x="162.22859988999505" y="406.14669323066204"/>
      <point x="202.6825396825397" y="422.0"/>
      <point x="243" y="422" type="curve" smooth="yes"/>
      <point x="308.4159292035398" y="422.0"/>
      <point x="355" y="384.0"/>
      <point x="355" y="298" type="curve" smooth="yes"/>
      <point x="355" y="28" type="line" smooth="yes"/>
      <point x="355" y="20"/>
      <point x="352" y="12"/>
      <point x="339" y="10" type="curve" smooth="yes"/>
      <point x="297" y="5" type="line" smooth="yes"/>
      <point x="294" y="5"/>
      <point x="292" y="4"/>
      <point x="292" y="2" type="curve" smooth="yes"/>
      <point x="292" y="1"/>
      <point x="294" y="0"/>
      <point x="296" y="0" type="curve" smooth="yes"/>
      <point x="434" y="0" type="line" smooth="yes"/>
      <point x="436" y="0"/>
      <point x="437" y="1"/>
      <point x="437" y="2" type="curve" smooth="yes"/>
      <point x="437" y="3"/>
      <point x="436" y="4"/>
      <point x="434" y="4" type="curve" smooth="yes"/>
      <point x="402" y="8" type="line" smooth="yes"/>
      <point x="389" y="10"/>
      <point x="382" y="17"/>
      <point x="382" y="28" type="curve" smooth="yes"/>
      <point x="382" y="300" type="line" smooth="yes"/>
      <point x="382" y="390.0"/>
      <point x="328.42857142857144" y="435.0"/>
      <point x="257" y="435" type="curve" smooth="yes"/>
      <point x="212.69014084507043" y="435.0"/>
      <point x="175.2630987920611" y="422.1788922059237"/>
      <point x="114" y="365" type="curve" smooth="yes"/>
      <point x="99" y="351" type="line"/>
    </contour>
    <contour>
      <point x="105" y="426" type="line" smooth="yes"/>
      <point x="105" y="428"/>
      <point x="104" y="430"/>
      <point x="102" y="430" type="curve" smooth="yes"/>
      <point x="101" y="430"/>
      <point x="100" y="430"/>
      <point x="97" y="429" type="curve" smooth="yes"/>
      <point x="23" y="408" type="line" smooth="yes"/>
      <point x="21" y="407"/>
      <point x="20" y="407"/>
      <point x="20" y="405" type="curve" smooth="yes"/>
      <point x="20" y="404"/>
      <point x="21" y="403"/>
      <point x="22" y="403" type="curve" smooth="yes"/>
      <point x="74" y="403" type="line" smooth="yes"/>
      <point x="77" y="403"/>
      <point x="78" y="401"/>
      <point x="78" y="399" type="curve" smooth="yes"/>
      <point x="78" y="20" type="line" smooth="yes"/>
      <point x="78" y="15"/>
      <point x="74" y="11"/>
      <point x="66" y="10" type="curve" smooth="yes"/>
      <point x="27" y="6" type="line" smooth="yes"/>
      <point x="22" y="5"/>
      <point x="20" y="3"/>
      <point x="20" y="2" type="curve" smooth="yes"/>
      <point x="20" y="1"/>
      <point x="21.0" y="0"/>
      <point x="22" y="0" type="curve" smooth="yes"/>
      <point x="158" y="0" type="line" smooth="yes"/>
      <point x="160" y="0"/>
      <point x="161" y="1"/>
      <point x="161" y="2" type="curve" smooth="yes"/>
      <point x="161" y="4"/>
      <point x="160" y="5"/>
      <point x="157" y="5" type="curve" smooth="yes"/>
      <point x="117" y="10" type="line" smooth="yes"/>
      <point x="109" y="11"/>
      <point x="105" y="15"/>
      <point x="105" y="21" type="curve" smooth="yes"/>
    </contour>
    <contour>
      <point x="368" y="349" type="line" smooth="yes"/>
      <point x="383" y="363" type="line" smooth="yes"/>
      <point x="429" y="406"/>
      <point x="470" y="422"/>
      <point x="510" y="422" type="curve" smooth="yes"/>
      <point x="575" y="422"/>
      <point x="622" y="384"/>
      <point x="622" y="298" type="curve" smooth="yes"/>
      <point x="622" y="28" type="line" smooth="yes"/>
      <point x="622" y="20"/>
      <point x="619" y="12"/>
      <point x="606" y="10" type="curve" smooth="yes"/>
      <point x="564" y="5" type="line" smooth="yes"/>
      <point x="561" y="5"/>
      <point x="559" y="4"/>
      <point x="559" y="2" type="curve" smooth="yes"/>
      <point x="559" y="1"/>
      <point x="561" y="0"/>
      <point x="563" y="0" type="curve" smooth="yes"/>
      <point x="701" y="0" type="line" smooth="yes"/>
      <point x="703" y="0"/>
      <point x="704" y="1"/>
      <point x="704" y="2" type="curve" smooth="yes"/>
      <point x="704" y="3"/>
      <point x="703" y="4"/>
      <point x="701" y="4" type="curve" smooth="yes"/>
      <point x="669" y="8" type="line" smooth="yes"/>
      <point x="656" y="10"/>
      <point x="649" y="17"/>
      <point x="649" y="28" type="curve" smooth="yes"/>
      <point x="649" y="300" type="line" smooth="yes"/>
      <point x="649" y="390"/>
      <point x="595" y="435"/>
      <point x="524" y="435" type="curve" smooth="yes"/>
      <point x="480" y="435"/>
      <point x="442" y="422"/>
      <point x="381" y="365" type="curve" smooth="yes"/>
      <point x="366" y="351" type="line"/>
    </contour>
  </outline>
</glyph>
<glyph name="macron.case" format="2">
  <outline>
    <contour>
      <point x="73" y="750" type="curve" smooth="yes"/>
      <point x="73" y="738"/>
      <point x="82" y="729"/>
      <point x="98" y="729" type="curve" smooth="yes"/>
      <point x="314" y="729" type="line" smooth="yes"/>
      <point x="330" y="729"/>
      <point x="340" y="738"/>
      <point x="340" y="750" type="curve" smooth="yes"/>
      <point x="340" y="763"/>
      <point x="329" y="773"/>
      <point x="314" y="773" type="curve" smooth="yes"/>
      <point x="99" y="773" type="line" smooth="yes"/>
      <point x="84" y="773"/>
      <point x="73" y="763"/>
    </contour>
  </outline>
</glyph>
<glyph name="nine.case" format="2">
  <advance width="605"/>
  <outline>
    <contour>
      <point x="238" y="-16" type="curve" smooth="yes"/>
      <point x="360" y="-16"/>
      <point x="455" y="101"/>
      <point x="455" y="344" type="curve" smooth="yes"/>
      <point x="455" y="567"/>
      <point x="367" y="701"/>
      <point x="239" y="701" type="curve" smooth="yes"/>
      <point x="124" y="701"/>
      <point x="44" y="597"/>
      <point x="44" y="477" type="curve" smooth="yes"/>
      <point x="44" y="337"/>
      <point x="129" y="263"/>
      <point x="231" y="263" type="curve" smooth="yes"/>
      <point x="320" y="263"/>
      <point x="404" y="320"/>
      <point x="404" y="474" type="curve"/>
      <point x="401" y="487" type="line"/>
      <point x="401" y="337"/>
      <point x="317" y="273"/>
      <point x="237" y="273" type="curve" smooth="yes"/>
      <point x="150" y="273"/>
      <point x="93" y="350"/>
      <point x="93" y="491" type="curve" smooth="yes"/>
      <point x="93" y="625"/>
      <point x="151" y="694"/>
      <point x="228" y="694" type="curve" smooth="yes"/>
      <point x="337" y="694"/>
      <point x="412" y="594"/>
      <point x="412" y="345" type="curve" smooth="yes"/>
      <point x="412" y="94"/>
      <point x="333" y="-7"/>
      <point x="228" y="-7" type="curve" smooth="yes"/>
      <point x="166" y="-7"/>
      <point x="132" y="27"/>
      <point x="132" y="78" type="curve" smooth="yes"/>
      <point x="132" y="101" type="line" smooth="yes"/>
      <point x="132" y="132"/>
      <point x="124" y="146"/>
      <point x="100" y="146" type="curve" smooth="yes"/>
      <point x="79" y="146"/>
      <point x="70" y="129"/>
      <point x="70" y="103" type="curve" smooth="yes"/>
      <point x="70" y="39"/>
      <point x="142" y="-16"/>
    </contour>
  </outline>
</glyph>
<glyph name="s.alt" format="2">
  <advance width="323"/>
  <outline>
    <contour>
      <point x="136" y="432" type="curve" smooth="yes"/>
      <point x="186" y="432.0"/>
      <point x="238.87415058789537" y="405.25169882420926"/>
      <point x="285" y="313" type="curve" smooth="yes"/>
      <point x="286" y="311"/>
      <point x="286" y="310"/>
      <point x="288" y="310" type="curve" smooth="yes"/>
      <point x="289" y="310"/>
      <point x="290" y="311"/>
      <point x="290" y="312" type="curve" smooth="yes"/>
      <point x="290" y="314"/>
      <point x="290" y="315"/>
      <point x="289" y="319" type="curve" smooth="yes"/>
      <point x="260" y="431" type="line" smooth="yes"/>
      <point x="259" y="434"/>
      <point x="257" y="434"/>
      <point x="256" y="434" type="curve" smooth="yes"/>
      <point x="250" y="434"/>
      <point x="233" y="407"/>
      <point x="230" y="407" type="curve" smooth="yes"/>
      <point x="222.84615384615384" y="407.0"/>
      <point x="190" y="436.0"/>
      <point x="137" y="436" type="curve" smooth="yes"/>
      <point x="68" y="436"/>
      <point x="29.0" y="391.0"/>
      <point x="29" y="330" type="curve" smooth="yes"/>
      <point x="29" y="265"/>
      <point x="69.47776231376011" y="225.15667130587195"/>
      <point x="160" y="198" type="curve" smooth="yes"/>
      <point x="255" y="170"/>
      <point x="281.0" y="137.0"/>
      <point x="281" y="90" type="curve" smooth="yes"/>
      <point x="281.0" y="35.0"/>
      <point x="236.0" y="-7.0"/>
      <point x="174" y="-7" type="curve" smooth="yes"/>
      <point x="106" y="-7"/>
      <point x="60" y="30"/>
      <point x="26" y="118" type="curve" smooth="yes"/>
      <point x="25" y="120"/>
      <point x="24" y="121"/>
      <point x="22" y="121" type="curve" smooth="yes"/>
      <point x="20" y="121"/>
      <point x="19" y="120"/>
      <point x="19" y="118" type="curve" smooth="yes"/>
      <point x="19" y="117"/>
      <point x="19" y="116"/>
      <point x="20" y="114" type="curve" smooth="yes"/>
      <point x="55" y="-8" type="line" smooth="yes"/>
      <point x="56" y="-11"/>
      <point x="57" y="-11"/>
      <point x="58" y="-11" type="curve" smooth="yes"/>
      <point x="60" y="-11"/>
      <point x="85" y="6"/>
      <point x="93" y="6" type="curve" smooth="yes"/>
      <point x="98" y="6"/>
      <point x="127" y="-11"/>
      <point x="174" y="-11" type="curve" smooth="yes"/>
      <point x="247.0" y="-11.0"/>
      <point x="301.0" y="47.0"/>
      <point x="301" y="102" type="curve" smooth="yes"/>
      <point x="301.0" y="161.0"/>
      <point x="266" y="196"/>
      <point x="170" y="226" type="curve" smooth="yes"/>
      <point x="75.7114583236922" y="255.08901817673325"/>
      <point x="44.0" y="287.9230769230769"/>
      <point x="44" y="341" type="curve" smooth="yes"/>
      <point x="44.0" y="395.19101123595505"/>
      <point x="80" y="432"/>
    </contour>
  </outline>
</glyph>
